<?xml version="1.0" encoding="UTF-8"?>
<svg width="669px" height="187px" viewBox="0 0 669 187" version="1.1" xmlns="http://www.w3.org/2000/svg" xmlns:xlink="http://www.w3.org/1999/xlink">
    <!-- Generator: Sketch 45.1 (43504) - http://www.bohemiancoding.com/sketch -->
    <title>ShipBob Logo Color</title>
    <desc>Created with Sketch.</desc>
    <defs></defs>
    <g id="Logo---Color" stroke="none" stroke-width="1" fill="none" fill-rule="evenodd">
        <g id="ShipBob-Logo-Color">
            <path d="M162.799158,46.8809569 C162.797669,46.8779978 162.794691,46.8720791 162.791713,46.8661609 C162.784269,46.8558034 162.775335,46.8424868 162.767891,46.8321297 C162.583267,46.5243684 162.386731,46.2269646 162.175307,45.9369592 C162.120218,45.8614983 162.06215,45.7904767 162.004083,45.7150163 C161.837325,45.4975118 161.666101,45.285926 161.484455,45.0802588 C161.381721,44.9633689 161.273031,44.8494381 161.167318,44.736987 C161.019917,44.5860657 160.871026,44.436624 160.71618,44.2901416 C160.573246,44.1569757 160.425844,44.0252895 160.278442,43.9010014 C160.141463,43.7870706 160.005973,43.6760991 159.866016,43.5666072 C159.696281,43.4334414 159.52059,43.3076736 159.34341,43.1833855 C159.209409,43.091649 159.076896,43.0013922 158.938428,42.9126149 C158.749337,42.7942453 158.558758,42.6817941 158.363711,42.5737819 C158.225243,42.495362 158.085286,42.4199014 157.942351,42.3473999 C157.73986,42.2453061 157.534391,42.1476512 157.325945,42.058874 C157.184499,41.9967299 157.043053,41.9345858 156.89714,41.8768806 C156.673805,41.789583 156.446002,41.7111632 156.218199,41.6357025 C156.087176,41.5942731 155.957641,41.5513642 155.825129,41.5143736 C155.560104,41.4374334 155.290612,41.3693708 155.019631,41.3116656 C154.924342,41.2924306 154.830541,41.2687566 154.735251,41.2510012 C154.400247,41.1858979 154.059288,41.1370704 153.721307,41.1000799 C153.685573,41.0971207 153.654306,41.0912022 153.620061,41.0882429 C151.200591,40.8470648 148.685831,41.3057471 146.41823,42.5826596 L83.1963637,78.2222772 L37.9827988,52.732856 L83.2335865,27.2212401 L113.40326,44.2176402 C119.137031,47.4446923 126.468398,45.5300637 129.779721,39.9326594 C133.091045,34.3337756 131.125691,27.1724127 125.39192,23.9409216 L89.2308942,3.56802776 C85.522033,1.47732408 80.9510956,1.47732408 77.2422344,3.56802776 L8.29850833,42.4332179 C6.40908845,43.4290025 4.76236,44.9189803 3.60994786,46.8661609 C0.297135194,52.4665243 2.26100032,59.6249278 7.99477181,62.8549395 L77.205012,101.87549 C77.2154343,101.881408 77.2243675,101.882888 77.2333011,101.888806 C77.5965938,102.091514 77.9732867,102.26463 78.3544462,102.427388 C78.4601585,102.473256 78.5614038,102.532441 78.6671161,102.57387 C78.8964073,102.665607 79.1346321,102.729231 79.3683903,102.804691 C80.6205592,103.217505 81.9069724,103.445367 83.1874304,103.445367 C83.190408,103.445367 83.1948751,103.445367 83.1993417,103.445367 C83.2008307,103.445367 83.2052973,103.445367 83.2097639,103.445367 C84.5185111,103.445367 85.8347029,103.210107 87.1106939,102.778058 C87.314674,102.708516 87.5246096,102.656729 87.7256116,102.57535 C87.8462128,102.528002 87.9623474,102.45994 88.0829486,102.408153 C88.4492193,102.249834 88.8125119,102.084116 89.1609156,101.888806 C89.1713379,101.882888 89.1817601,101.881408 89.1921824,101.87549 L140.441767,72.98738 L140.441767,124.009132 L83.2142305,156.266337 L25.9941392,124.009132 L25.9941392,91.7489674 C25.9941392,85.2845056 20.6251493,80.0451696 14.0069685,80.0451696 C7.38580983,80.0451696 2.01830888,85.2845056 2.01830888,91.7489674 L2.01830888,130.766559 C2.01830888,134.947966 4.30079958,138.809775 8.01114977,140.900479 L77.2213899,179.919549 C79.0735872,180.962682 81.1446534,181.484988 83.2142305,181.484988 C85.2838082,181.484988 87.3548744,180.962682 89.2085607,179.919549 L158.421779,140.900479 C162.132128,138.809775 164.414619,134.947966 164.414619,130.766559 L164.414619,52.732856 C164.414619,50.5992431 163.822035,48.6047147 162.799158,46.8809569" id="Fill-1" fill="#2470AF" fill-rule="nonzero"></path>
            <path d="M226.587501,112.375 C230.587521,114.958346 234.64998,116.874994 238.775001,118.125 C242.900021,119.375006 246.962481,120 250.962501,120 C254.962521,120 258.191655,119.083343 260.650001,117.25 C263.108346,115.416657 264.337501,113.041681 264.337501,110.125 C264.337501,107.708321 263.358344,105.812507 261.400001,104.4375 C259.441657,103.062493 256.983349,101.833339 254.025001,100.75 C251.066652,99.6666613 247.879184,98.5625056 244.462501,97.4375 C241.045817,96.3124944 237.858349,94.8125094 234.900001,92.9375 C231.941652,91.0624906 229.483344,88.5833487 227.525001,85.5 C225.566657,82.4166513 224.587501,78.375025 224.587501,73.375 C224.587501,69.5416475 225.379159,66.0416825 226.962501,62.875 C228.545842,59.7083175 230.754153,56.9791781 233.587501,54.6875 C236.420848,52.3958219 239.816647,50.6250062 243.775001,49.375 C247.733354,48.1249938 252.087477,47.5 256.837501,47.5 C260.837521,47.5 264.816647,47.8749963 268.775001,48.625 C272.733354,49.3750037 276.712481,50.5416587 280.712501,52.125 L280.712501,70.375 C276.962482,68.2083225 273.212519,66.6041719 269.462501,65.5625 C265.712482,64.5208281 262.004186,64 258.337501,64 C254.504148,64 251.400012,64.833325 249.025001,66.5 C246.649989,68.166675 245.462501,70.3749863 245.462501,73.125 C245.462501,75.458345 246.441657,77.29166 248.400001,78.625 C250.358344,79.95834 252.795819,81.1458281 255.712501,82.1875 C258.629182,83.2291719 261.81665,84.3124944 265.275001,85.4375 C268.733351,86.5625056 271.920819,88.0833238 274.837501,90 C277.754182,91.9166762 280.191657,94.4374844 282.150001,97.5625 C284.108344,100.687516 285.087501,104.791641 285.087501,109.875 C285.087501,113.791686 284.275009,117.395817 282.650001,120.6875 C281.024992,123.979183 278.775015,126.791655 275.900001,129.125 C273.024986,131.458345 269.587521,133.270827 265.587501,134.5625 C261.587481,135.854173 257.212524,136.5 252.462501,136.5 C243.712457,136.5 235.087543,134.625019 226.587501,130.875 L226.587501,112.375 Z M291.1625,45.125 L311.5375,45.125 L311.5375,76.875 C316.954194,72.9583138 322.66247,71 328.6625,71 C331.912517,71 334.912487,71.5624944 337.6625,72.6875 C340.412514,73.8125056 342.78749,75.3958231 344.7875,77.4375 C346.78751,79.4791769 348.349995,81.9166525 349.475,84.75 C350.600006,87.5833475 351.1625,90.66665 351.1625,94 L351.1625,135 L330.7875,135 L330.7875,97.75 C330.7875,95.1666537 329.975009,93.041675 328.35,91.375 C326.724992,89.708325 324.662513,88.875 322.1625,88.875 C318.412482,88.875 314.87085,90.54165 311.5375,93.875 L311.5375,135 L291.1625,135 L291.1625,45.125 Z M359.4875,72.5 L379.8625,72.5 L379.8625,135 L359.4875,135 L359.4875,72.5 Z M358.4875,55.875 C358.4875,52.54165 359.529156,49.8541769 361.6125,47.8125 C363.695844,45.7708231 366.40415,44.75 369.7375,44.75 C372.904183,44.75 375.54999,45.7708231 377.675,47.8125 C379.800011,49.8541769 380.8625,52.54165 380.8625,55.875 C380.8625,59.0416825 379.800011,61.6666563 377.675,63.75 C375.54999,65.8333437 372.904183,66.875 369.7375,66.875 C366.40415,66.875 363.695844,65.8333437 361.6125,63.75 C359.529156,61.6666563 358.4875,59.0416825 358.4875,55.875 Z M431.3125,103.75 C431.3125,99.1666438 430.166678,95.4791806 427.875,92.6875 C425.583322,89.8958194 422.604185,88.5 418.9375,88.5 C415.270815,88.5 411.979181,89.9583188 409.0625,92.875 L409.0625,114.625 C411.979181,117.541681 415.270815,119 418.9375,119 C422.604185,119 425.583322,117.583348 427.875,114.75 C430.166678,111.916652 431.3125,108.250023 431.3125,103.75 Z M388.6875,72.5 L409.0625,72.5 L409.0625,75.875 C413.812524,72.6249837 418.687475,71 423.6875,71 C427.854187,71 431.687482,71.8124919 435.1875,73.4375 C438.687518,75.0625081 441.687487,77.3124856 444.1875,80.1875 C446.687513,83.0625144 448.624993,86.49998 450,90.5 C451.375007,94.50002 452.0625,98.9166425 452.0625,103.75 C452.0625,108.583358 451.375007,112.99998 450,117 C448.624993,121.00002 446.687513,124.437486 444.1875,127.3125 C441.687487,130.187514 438.687518,132.437492 435.1875,134.0625 C431.687482,135.687508 427.854187,136.5 423.6875,136.5 C418.687475,136.5 413.812524,134.875016 409.0625,131.625 L409.0625,162.375 L388.6875,162.375 L388.6875,72.5 Z M479.2625,119 L492.6375,119 C495.804182,119 498.408323,118.062509 500.45,116.1875 C502.491677,114.312491 503.5125,111.916681 503.5125,109 C503.5125,106.083319 502.491677,103.687509 500.45,101.8125 C498.408323,99.9374906 495.804182,99 492.6375,99 L479.2625,99 L479.2625,119 Z M479.2625,83.5 L490.8875,83.5 C493.804181,83.5 496.220824,82.6250088 498.1375,80.875 C500.054176,79.1249912 501.0125,76.91668 501.0125,74.25 C501.0125,71.4999863 500.054176,69.2708419 498.1375,67.5625 C496.220824,65.8541581 493.804181,65 490.8875,65 L479.2625,65 L479.2625,83.5 Z M459.3875,49 L494.7625,49 C498.595852,49 502.095817,49.5833275 505.2625,50.75 C508.429182,51.9166725 511.179155,53.5416562 513.5125,55.625 C515.845845,57.7083437 517.658327,60.1666525 518.95,63 C520.241673,65.8333475 520.8875,68.91665 520.8875,72.25 C520.8875,76.5000213 519.88751,80.29165 517.8875,83.625 C515.88749,86.95835 513.137517,89.4166587 509.6375,91 C514.137522,92.666675 517.616654,95.2708156 520.075,98.8125 C522.533345,102.354184 523.7625,106.416644 523.7625,111 C523.7625,114.500017 523.09584,117.729152 521.7625,120.6875 C520.42916,123.645848 518.575012,126.187489 516.2,128.3125 C513.824988,130.437511 510.991683,132.083327 507.7,133.25 C504.408317,134.416673 500.804186,135 496.8875,135 L459.3875,135 L459.3875,49 Z M526.2125,103.75 C526.2125,98.9166425 527.045825,94.50002 528.7125,90.5 C530.379175,86.49998 532.712485,83.0625144 535.7125,80.1875 C538.712515,77.3124856 542.274979,75.0625081 546.4,73.4375 C550.52502,71.8124919 555.045808,71 559.9625,71 C564.879191,71 569.399979,71.8124919 573.525,73.4375 C577.65002,75.0625081 581.191651,77.3124856 584.15,80.1875 C587.108348,83.0625144 589.420825,86.49998 591.0875,90.5 C592.754175,94.50002 593.5875,98.9166425 593.5875,103.75 C593.5875,108.500024 592.754175,112.895813 591.0875,116.9375 C589.420825,120.979187 587.108348,124.437486 584.15,127.3125 C581.191651,130.187514 577.65002,132.437492 573.525,134.0625 C569.399979,135.687508 564.879191,136.5 559.9625,136.5 C555.045808,136.5 550.52502,135.687508 546.4,134.0625 C542.274979,132.437492 538.712515,130.187514 535.7125,127.3125 C532.712485,124.437486 530.379175,120.979187 528.7125,116.9375 C527.045825,112.895813 526.2125,108.500024 526.2125,103.75 Z M547.0875,103.75 C547.0875,108.500024 548.274988,112.312486 550.65,115.1875 C553.025011,118.062514 556.129147,119.5 559.9625,119.5 C563.712518,119.5 566.795821,118.062514 569.2125,115.1875 C571.629178,112.312486 572.8375,108.500024 572.8375,103.75 C572.8375,98.9999763 571.629178,95.1875144 569.2125,92.3125 C566.795821,89.4374856 563.712518,88 559.9625,88 C556.129147,88 553.025011,89.4374856 550.65,92.3125 C548.274988,95.1875144 547.0875,98.9999763 547.0875,103.75 Z M641.162499,103.75 C641.162499,99.1666438 640.016678,95.4791806 637.724999,92.6875 C635.433321,89.8958194 632.454184,88.5 628.787499,88.5 C625.120814,88.5 621.829181,89.9583188 618.912499,92.875 L618.912499,114.625 C621.829181,117.541681 625.120814,119 628.787499,119 C632.454184,119 635.433321,117.583348 637.724999,114.75 C640.016678,111.916652 641.162499,108.250023 641.162499,103.75 Z M598.537499,45.125 L618.912499,45.125 L618.912499,75.875 C623.662523,72.6249837 628.537474,71 633.537499,71 C637.704187,71 641.537482,71.8124919 645.037499,73.4375 C648.537517,75.0625081 651.537487,77.3124856 654.037499,80.1875 C656.537512,83.0625144 658.474993,86.49998 659.849999,90.5 C661.225006,94.50002 661.912499,98.9166425 661.912499,103.75 C661.912499,108.583358 661.225006,112.99998 659.849999,117 C658.474993,121.00002 656.537512,124.437486 654.037499,127.3125 C651.537487,130.187514 648.537517,132.437492 645.037499,134.0625 C641.537482,135.687508 637.704187,136.5 633.537499,136.5 C628.537474,136.5 623.662523,134.875016 618.912499,131.625 L618.912499,135 L598.537499,135 L598.537499,45.125 Z" id="ShipBob" fill="#343E4F"></path>
        </g>
    </g>
</svg>